<svg width="34" height="34" viewBox="0 0 34 34" fill="none" xmlns="http://www.w3.org/2000/svg">
<g id="Frame 49">
<path id="Rectangle 9325" d="M6 4C6 1.79086 7.79086 0 10 0H22L32 10V30C32 32.2091 30.2091 34 28 34H10C7.79086 34 6 32.2091 6 30V4Z" fill="#E5252A"/>
<path id="Rectangle 9326" d="M22 0L32 10H24C22.8954 10 22 9.10457 22 8V0Z" fill="#B71D21"/>
<rect id="Rectangle 9327" x="2" y="15" width="24" height="11" rx="1" fill="#B71D21"/>
<g id="PDF">
<path d="M10.2428 19.0408C10.2428 19.389 10.1859 19.7031 10.072 19.9831C9.95819 20.2631 9.79453 20.5018 9.58105 20.6992C9.37114 20.8967 9.11141 21.0492 8.80187 21.1569C8.49589 21.2646 8.12942 21.3185 7.70247 21.3185H6.91795V23.8277C6.91795 23.8564 6.90905 23.8815 6.89126 23.9031C6.87703 23.9246 6.85212 23.9426 6.81654 23.9569C6.78452 23.9677 6.73827 23.9767 6.67779 23.9838C6.62086 23.9946 6.54792 24 6.45897 24C6.37002 24 6.29531 23.9946 6.23482 23.9838C6.1779 23.9767 6.13164 23.9677 6.09606 23.9569C6.06048 23.9426 6.03558 23.9246 6.02135 23.9031C6.00712 23.8815 6 23.8564 6 23.8277V17.3985C6 17.2549 6.03736 17.1526 6.11207 17.0915C6.18679 17.0305 6.2704 17 6.36291 17H7.84123C7.99066 17 8.13298 17.0072 8.26818 17.0215C8.40694 17.0323 8.56882 17.0592 8.75384 17.1023C8.94241 17.1418 9.13276 17.219 9.32488 17.3338C9.52057 17.4451 9.68601 17.5833 9.82121 17.7485C9.95642 17.9136 10.0596 18.1056 10.1308 18.3246C10.2055 18.54 10.2428 18.7787 10.2428 19.0408ZM9.27685 19.1162C9.27685 18.8326 9.22348 18.5956 9.11674 18.4054C9.01356 18.2151 8.8837 18.0733 8.72715 17.98C8.57416 17.8867 8.41405 17.8274 8.24683 17.8023C8.08317 17.7772 7.92306 17.7646 7.76651 17.7646H6.91795V20.5592H7.74516C8.02268 20.5592 8.25217 20.5233 8.43362 20.4515C8.61863 20.3797 8.7734 20.281 8.89793 20.1554C9.02246 20.0262 9.11674 19.8736 9.18079 19.6977C9.24483 19.5182 9.27685 19.3244 9.27685 19.1162Z" fill="white"/>
<path d="M16.9566 20.3815C16.9566 20.9846 16.8801 21.5123 16.7272 21.9646C16.5742 22.4133 16.35 22.7867 16.0547 23.0846C15.763 23.379 15.4036 23.5997 14.9767 23.7469C14.5497 23.8941 14.0409 23.9677 13.4503 23.9677H11.988C11.9062 23.9677 11.8279 23.9408 11.7532 23.8869C11.682 23.8295 11.6464 23.7308 11.6464 23.5908V17.3769C11.6464 17.2369 11.682 17.14 11.7532 17.0862C11.8279 17.0287 11.9062 17 11.988 17H13.5517C14.1494 17 14.6547 17.079 15.0674 17.2369C15.4801 17.3913 15.8252 17.6156 16.1027 17.91C16.3838 18.2008 16.5955 18.5544 16.7378 18.9708C16.8837 19.3872 16.9566 19.8574 16.9566 20.3815ZM15.9907 20.4192C15.9907 20.0423 15.9444 19.6923 15.8519 19.3692C15.7594 19.0426 15.6135 18.7608 15.4143 18.5238C15.2186 18.2869 14.9695 18.1021 14.6671 17.9692C14.3647 17.8364 13.9751 17.77 13.4983 17.77H12.5644V23.1923H13.509C13.9502 23.1923 14.322 23.1367 14.6244 23.0254C14.9268 22.9141 15.1795 22.7436 15.3823 22.5138C15.5851 22.2841 15.7363 21.9969 15.8359 21.6523C15.9391 21.3041 15.9907 20.8931 15.9907 20.4192Z" fill="white"/>
<path d="M22 17.3985C22 17.4667 21.9964 17.5259 21.9893 17.5762C21.9822 17.6264 21.9698 17.6677 21.952 17.7C21.9342 17.7287 21.9128 17.7503 21.8879 17.7646C21.8666 17.779 21.8435 17.7862 21.8185 17.7862H19.2889V20.1554H21.6798C21.7047 20.1554 21.7278 20.1626 21.7492 20.1769C21.7741 20.1877 21.7954 20.2074 21.8132 20.2362C21.831 20.2649 21.8435 20.3044 21.8506 20.3546C21.8577 20.4013 21.8612 20.4623 21.8612 20.5377C21.8612 20.6059 21.8577 20.6651 21.8506 20.7154C21.8435 20.7621 21.831 20.8015 21.8132 20.8338C21.7954 20.8626 21.7741 20.8859 21.7492 20.9038C21.7278 20.9182 21.7047 20.9254 21.6798 20.9254H19.2889V23.8277C19.2889 23.8528 19.2817 23.8779 19.2675 23.9031C19.2533 23.9246 19.2284 23.9426 19.1928 23.9569C19.1572 23.9677 19.111 23.9767 19.054 23.9838C18.9971 23.9946 18.9224 24 18.8299 24C18.7445 24 18.6716 23.9946 18.6111 23.9838C18.5506 23.9767 18.5026 23.9677 18.467 23.9569C18.4314 23.9426 18.4065 23.9246 18.3923 23.9031C18.378 23.8779 18.3709 23.8528 18.3709 23.8277V17.3769C18.3709 17.2369 18.4065 17.14 18.4777 17.0862C18.5524 17.0287 18.6306 17 18.7125 17H21.8185C21.8435 17 21.8666 17.0072 21.8879 17.0215C21.9128 17.0359 21.9342 17.0592 21.952 17.0915C21.9698 17.1238 21.9822 17.1669 21.9893 17.2208C21.9964 17.271 22 17.3303 22 17.3985Z" fill="white"/>
</g>
</g>
</svg>